<svg width="120" height="40" viewBox="0 0 120 40" fill="none" xmlns="http://www.w3.org/2000/svg">
<rect x="0.5" y="0.5" width="119" height="39" rx="5.5" fill="white"/>
<rect x="0.5" y="0.5" width="119" height="39" rx="5.5" stroke="black"/>
<path d="M24.7045 20.7631C24.7166 19.8432 24.9669 18.9413 25.4321 18.1412C25.8972 17.3411 26.5621 16.6688 27.3648 16.187C26.8548 15.476 26.1821 14.8908 25.4 14.478C24.6178 14.0652 23.7479 13.8361 22.8592 13.809C20.9635 13.6147 19.1258 14.9164 18.1598 14.9164C17.1751 14.9164 15.6878 13.8283 14.0862 13.8604C13.0502 13.8931 12.0406 14.1872 11.1557 14.7141C10.2708 15.241 9.54075 15.9827 9.03674 16.8669C6.85352 20.5573 8.48201 25.9809 10.5734 28.964C11.6197 30.4247 12.8426 32.0564 14.4428 31.9985C16.0086 31.9351 16.5934 31.0237 18.4835 31.0237C20.3561 31.0237 20.9048 31.9985 22.5374 31.9617C24.2176 31.9351 25.2762 30.4945 26.2859 29.02C27.0377 27.9792 27.6162 26.8288 28 25.6116C27.0238 25.2085 26.1908 24.5338 25.6048 23.6716C25.0187 22.8094 24.7056 21.7979 24.7045 20.7631Z" fill="black"/>
<path d="M21.6208 11.8471C22.5369 10.7734 22.9883 9.39335 22.879 8C21.4794 8.14352 20.1865 8.7966 19.258 9.82911C18.804 10.3335 18.4563 10.9203 18.2348 11.556C18.0132 12.1917 17.9222 12.8638 17.9669 13.5338C18.6669 13.5408 19.3595 13.3927 19.9924 13.1005C20.6254 12.8084 21.1821 12.3798 21.6208 11.8471Z" fill="black"/>
<path d="M38.2061 30H36.1758L40.3066 18.0029H42.5391L46.6611 30H44.5518L43.4883 26.6777H39.2783L38.2061 30ZM41.4316 20.0771H41.3525L39.7266 25.1484H43.04L41.4316 20.0771ZM52.2644 30.1318C51.0603 30.1318 50.1462 29.5605 49.654 28.708H49.5837V33.085H47.6325V20.71H49.531V22.0723H49.6013C50.1111 21.1846 51.0603 20.5869 52.3083 20.5869C54.3913 20.5869 55.8767 22.1602 55.8767 24.9375V25.7637C55.8767 28.5234 54.4089 30.1318 52.2644 30.1318ZM51.8161 28.5234C53.0554 28.5234 53.8991 27.5303 53.8991 25.6582V25.0078C53.8991 23.2061 53.1081 22.1777 51.781 22.1777C50.4187 22.1777 49.5661 23.2852 49.5661 24.999V25.6582C49.5661 27.416 50.4275 28.5234 51.8161 28.5234ZM62.183 30.1318C60.9789 30.1318 60.0649 29.5605 59.5727 28.708H59.5024V33.085H57.5512V20.71H59.4496V22.0723H59.52C60.0297 21.1846 60.9789 20.5869 62.227 20.5869C64.31 20.5869 65.7954 22.1602 65.7954 24.9375V25.7637C65.7954 28.5234 64.3276 30.1318 62.183 30.1318ZM61.7348 28.5234C62.9741 28.5234 63.8178 27.5303 63.8178 25.6582V25.0078C63.8178 23.2061 63.0268 22.1777 61.6996 22.1777C60.3373 22.1777 59.4848 23.2852 59.4848 24.999V25.6582C59.4848 27.416 60.3461 28.5234 61.7348 28.5234ZM69.8387 26.6689H71.7899C71.8778 27.7061 72.7919 28.5938 74.4882 28.5938C76.0438 28.5938 76.9667 27.8643 76.9667 26.7305C76.9667 25.8164 76.3514 25.3242 75.0682 25.0166L73.0995 24.5244C71.5526 24.1641 70.1639 23.2412 70.1639 21.29C70.1639 18.9961 72.1679 17.7393 74.497 17.7393C76.8261 17.7393 78.7684 18.9961 78.8124 21.2373H76.8964C76.8085 20.2178 76.0262 19.374 74.4706 19.374C73.0995 19.374 72.1679 20.0244 72.1679 21.1406C72.1679 21.9229 72.7128 22.4854 73.829 22.7402L75.7889 23.2236C77.5907 23.6631 78.9618 24.5156 78.9618 26.5547C78.9618 28.9102 77.0546 30.2373 74.3387 30.2373C70.9989 30.2373 69.8827 28.2861 69.8387 26.6689ZM81.3395 20.71V18.4512H83.2555V20.71H85.066V22.2744H83.2555V27.2314C83.2555 28.2422 83.6334 28.5234 84.6793 28.5234C84.8463 28.5234 85.0045 28.5234 85.1188 28.5059V30C84.9605 30.0264 84.5914 30.0615 84.1959 30.0615C81.9371 30.0615 81.3131 29.2529 81.3131 27.3896V22.2744H80.0299V20.71H81.3395ZM90.3353 20.5518C93.0071 20.5518 94.4573 22.4326 94.4573 24.9639V25.7109C94.4573 28.3301 93.0159 30.1582 90.3353 30.1582C87.6546 30.1582 86.1956 28.3301 86.1956 25.7109V24.9639C86.1956 22.4414 87.6634 20.5518 90.3353 20.5518ZM90.3353 22.1162C88.8851 22.1162 88.1644 23.3027 88.1644 24.9902V25.7021C88.1644 27.3633 88.8763 28.585 90.3353 28.585C91.7943 28.585 92.4974 27.3721 92.4974 25.7021V24.9902C92.4974 23.2939 91.7855 22.1162 90.3353 22.1162ZM96.1055 30V20.71H98.0567V21.9316H98.127C98.3643 21.3516 99.0586 20.5781 100.351 20.5781C100.606 20.5781 100.825 20.5957 101.01 20.6309V22.3535C100.843 22.3096 100.5 22.2832 100.175 22.2832C98.6104 22.2832 98.083 23.25 98.083 24.498V30H96.1055ZM105.743 30.1582C103.256 30.1582 101.674 28.5146 101.674 25.7637V24.8232C101.674 22.2305 103.22 20.5518 105.664 20.5518C108.142 20.5518 109.636 22.292 109.636 24.9111V25.7988H103.598V26.0186C103.598 27.583 104.442 28.6201 105.769 28.6201C106.762 28.6201 107.439 28.1279 107.677 27.3281H109.531C109.25 28.8311 108.037 30.1582 105.743 30.1582ZM103.598 24.4365H107.729V24.4189C107.729 23.1006 106.912 22.0635 105.673 22.0635C104.416 22.0635 103.598 23.1006 103.598 24.4189V24.4365Z" fill="black"/>
<path d="M37.5601 10.6206V11.416C37.5601 11.8086 37.6157 12.1426 37.7271 12.418C37.8413 12.6934 38.0068 12.9028 38.2236 13.0464C38.4404 13.1899 38.7012 13.2617 39.0059 13.2617C39.252 13.2617 39.4673 13.2163 39.6519 13.1255C39.8394 13.0347 39.9888 12.9102 40.1001 12.752C40.2114 12.5908 40.2788 12.4062 40.3022 12.1982H41.2734C41.2734 12.21 41.2734 12.2217 41.2734 12.2334C41.2734 12.2451 41.2734 12.2568 41.2734 12.2686C41.2471 12.6289 41.1328 12.9482 40.9307 13.2266C40.7314 13.5049 40.4648 13.7231 40.1309 13.8813C39.7969 14.0396 39.4204 14.1187 39.0015 14.1187C38.48 14.1187 38.0361 14.0117 37.6699 13.7979C37.3037 13.584 37.0254 13.2764 36.835 12.875C36.6445 12.4707 36.5493 11.9844 36.5493 11.416V10.6118C36.5493 10.0464 36.646 9.56006 36.8394 9.15283C37.0327 8.74268 37.3125 8.4292 37.6787 8.2124C38.0449 7.99268 38.4858 7.88281 39.0015 7.88281C39.3179 7.88281 39.6094 7.92969 39.876 8.02344C40.1455 8.11426 40.3813 8.24609 40.5835 8.41895C40.7856 8.5918 40.9468 8.79688 41.0669 9.03418C41.187 9.26855 41.2559 9.52783 41.2734 9.81201C41.2734 9.82373 41.2734 9.83545 41.2734 9.84717C41.2734 9.85596 41.2734 9.86621 41.2734 9.87793H40.3022C40.2788 9.6582 40.21 9.46338 40.0957 9.29346C39.9844 9.12061 39.835 8.98584 39.6475 8.88916C39.46 8.79248 39.2461 8.74414 39.0059 8.74414C38.7041 8.74414 38.4448 8.81885 38.228 8.96826C38.0142 9.11475 37.8486 9.32715 37.7314 9.60547C37.6172 9.88379 37.5601 10.2222 37.5601 10.6206ZM44.376 9.27588C44.7803 9.27588 45.1377 9.35938 45.4482 9.52637C45.7588 9.69336 46.0005 9.93359 46.1733 10.2471C46.3491 10.5605 46.437 10.9341 46.437 11.3677V11.9697C46.437 12.418 46.3491 12.8003 46.1733 13.1167C46.0005 13.4302 45.7588 13.6689 45.4482 13.833C45.1377 13.9971 44.7803 14.0791 44.376 14.0791C43.9658 14.0791 43.6055 13.9971 43.2949 13.833C42.9873 13.6689 42.7456 13.4302 42.5698 13.1167C42.394 12.8032 42.3062 12.4224 42.3062 11.9741V11.3721C42.3062 10.9473 42.394 10.5781 42.5698 10.2646C42.7456 9.95117 42.9888 9.70801 43.2993 9.53516C43.6128 9.3623 43.9717 9.27588 44.376 9.27588ZM44.3804 10.0625C44.146 10.0625 43.9482 10.1226 43.7871 10.2427C43.626 10.3599 43.5029 10.521 43.418 10.7261C43.333 10.9282 43.2905 11.1597 43.2905 11.4204V11.939C43.2905 12.1997 43.3301 12.4326 43.4092 12.6377C43.4912 12.8398 43.6128 12.9995 43.7739 13.1167C43.938 13.2339 44.1401 13.2925 44.3804 13.2925C44.6206 13.2925 44.8198 13.2339 44.978 13.1167C45.1362 12.9995 45.2549 12.8398 45.334 12.6377C45.416 12.4326 45.457 12.1997 45.457 11.939V11.4204C45.457 11.1597 45.4146 10.9282 45.3296 10.7261C45.2476 10.521 45.126 10.3599 44.9648 10.2427C44.8066 10.1226 44.6118 10.0625 44.3804 10.0625ZM47.6938 14V9.35498H48.6519V10.1108H48.7002C48.7383 9.99658 48.8013 9.87646 48.8892 9.75049C48.98 9.62158 49.1104 9.51172 49.2803 9.4209C49.4531 9.33008 49.6816 9.28467 49.9658 9.28467C50.2002 9.28467 50.4038 9.32275 50.5767 9.39893C50.7524 9.4751 50.896 9.5791 51.0073 9.71094C51.1187 9.84277 51.1992 9.99072 51.249 10.1548H51.2886C51.3472 10.0083 51.4365 9.86914 51.5566 9.7373C51.6768 9.60254 51.8306 9.49414 52.0181 9.41211C52.2085 9.32715 52.4355 9.28467 52.6992 9.28467C53.1738 9.28467 53.5444 9.41357 53.811 9.67139C54.0776 9.9292 54.2109 10.2866 54.2109 10.7437V14H53.2397V11.0337C53.2397 10.8374 53.2046 10.6704 53.1343 10.5327C53.064 10.3921 52.9629 10.2852 52.8311 10.2119C52.7021 10.1387 52.5439 10.1021 52.3564 10.1021C52.1836 10.1021 52.0269 10.1445 51.8862 10.2295C51.7456 10.3115 51.6343 10.4287 51.5522 10.5811C51.4702 10.7334 51.4292 10.9121 51.4292 11.1172V14H50.48V11.0601C50.48 10.8579 50.4419 10.6865 50.3657 10.5459C50.2896 10.4023 50.1841 10.2925 50.0493 10.2163C49.9175 10.1401 49.7622 10.1021 49.5835 10.1021C49.4077 10.1021 49.251 10.1431 49.1133 10.2251C48.9756 10.3071 48.8672 10.4229 48.7881 10.5723C48.709 10.7217 48.6694 10.9004 48.6694 11.1084V14H47.6938ZM55.7578 14V9.35498H56.729V14H55.7578ZM55.5996 7.95752C55.5996 7.78174 55.6597 7.63818 55.7798 7.52686C55.8999 7.41553 56.0522 7.35986 56.2368 7.35986C56.4302 7.35986 56.5869 7.41553 56.707 7.52686C56.8301 7.63818 56.8916 7.78174 56.8916 7.95752C56.8916 8.13037 56.8301 8.27246 56.707 8.38379C56.5869 8.49219 56.4302 8.54639 56.2368 8.54639C56.0522 8.54639 55.8999 8.49219 55.7798 8.38379C55.6597 8.27246 55.5996 8.13037 55.5996 7.95752ZM58.3022 14V9.35498H59.2603V10.1899H59.3086C59.3496 10.0669 59.4185 9.93506 59.5151 9.79443C59.6147 9.65381 59.7598 9.53369 59.9502 9.43408C60.1406 9.33447 60.3926 9.28467 60.7061 9.28467C61.1719 9.28467 61.5483 9.41504 61.8354 9.67578C62.1255 9.93652 62.2705 10.332 62.2705 10.8623V14H61.2949V11.1479C61.2949 10.9106 61.2554 10.7173 61.1763 10.5679C61.1001 10.4155 60.9932 10.3027 60.8555 10.2295C60.7178 10.1533 60.5566 10.1152 60.3721 10.1152C60.1348 10.1152 59.9341 10.1724 59.77 10.2866C59.6089 10.3979 59.4858 10.5518 59.4009 10.748C59.3188 10.9443 59.2778 11.1685 59.2778 11.4204V14H58.3022ZM65.4917 14.936C65.8667 14.936 66.1465 14.8408 66.3311 14.6504C66.5156 14.46 66.6079 14.1934 66.6079 13.8506V13.187H66.5552C66.5112 13.2896 66.4482 13.3848 66.3662 13.4727C66.2871 13.5576 66.1919 13.6338 66.0806 13.7012C65.9722 13.7686 65.8477 13.8213 65.707 13.8594C65.5693 13.8945 65.4185 13.9121 65.2544 13.9121C64.9146 13.9121 64.6084 13.8345 64.3359 13.6792C64.0635 13.521 63.8481 13.2925 63.6899 12.9937C63.5347 12.6948 63.457 12.3345 63.457 11.9126V11.3018C63.457 10.877 63.5347 10.5151 63.6899 10.2163C63.8481 9.91455 64.062 9.68604 64.3315 9.53076C64.604 9.37256 64.9116 9.29346 65.2544 9.29346C65.4829 9.29346 65.688 9.33008 65.8696 9.40332C66.0513 9.47363 66.2036 9.56885 66.3267 9.68896C66.4497 9.80615 66.5361 9.93066 66.5859 10.0625H66.6343V9.35498H67.5791V13.8813C67.5791 14.2095 67.5234 14.4878 67.4121 14.7163C67.3037 14.9478 67.1514 15.1353 66.9551 15.2788C66.7617 15.4253 66.5376 15.5322 66.2827 15.5996C66.0278 15.667 65.7539 15.7007 65.4609 15.7007C65.042 15.7007 64.6948 15.6392 64.4194 15.5161C64.147 15.3931 63.939 15.2319 63.7954 15.0327C63.6548 14.8335 63.5757 14.6182 63.5581 14.3867H64.5249C64.5454 14.4893 64.5967 14.5815 64.6787 14.6636C64.7607 14.7485 64.8706 14.8145 65.0083 14.8613C65.1489 14.9111 65.3101 14.936 65.4917 14.936ZM65.5576 10.0933C65.332 10.0933 65.1357 10.1475 64.9688 10.2559C64.8047 10.3643 64.6772 10.5195 64.5864 10.7217C64.4956 10.9209 64.4502 11.1538 64.4502 11.4204V11.8247C64.4502 12.0913 64.4971 12.3242 64.5908 12.5234C64.6875 12.7197 64.8193 12.8735 64.9863 12.9849C65.1533 13.0933 65.3452 13.1475 65.562 13.1475C65.7876 13.1475 65.978 13.0918 66.1333 12.9805C66.2886 12.8691 66.4058 12.7227 66.4849 12.541C66.5669 12.3564 66.6079 12.1543 66.6079 11.9346V11.3237C66.6079 11.0981 66.5654 10.8931 66.4805 10.7085C66.3955 10.521 66.2754 10.3716 66.1201 10.2603C65.9648 10.1489 65.7773 10.0933 65.5576 10.0933ZM70.6641 12.4224H71.644C71.6675 12.5513 71.7144 12.6699 71.7847 12.7783C71.8579 12.8838 71.9517 12.9761 72.0659 13.0552C72.1831 13.1313 72.3179 13.1914 72.4702 13.2354C72.6255 13.2764 72.7954 13.2969 72.98 13.2969C73.2437 13.2969 73.4678 13.2588 73.6523 13.1826C73.8369 13.1035 73.9775 12.9951 74.0742 12.8574C74.1738 12.7168 74.2236 12.5527 74.2236 12.3652C74.2236 12.1396 74.146 11.9609 73.9907 11.8291C73.8354 11.6943 73.5952 11.5874 73.27 11.5083L72.2856 11.2622C71.981 11.189 71.7188 11.0806 71.499 10.937C71.2793 10.7935 71.1108 10.6133 70.9937 10.3965C70.8765 10.1797 70.8179 9.9292 70.8179 9.64502C70.8179 9.29346 70.9102 8.98438 71.0947 8.71777C71.2822 8.45117 71.5386 8.24316 71.8638 8.09375C72.189 7.94434 72.5625 7.86963 72.9844 7.86963C73.4121 7.86963 73.7812 7.94141 74.0918 8.08496C74.4053 8.22852 74.6514 8.42334 74.8301 8.66943C75.0117 8.91553 75.1143 9.19238 75.1377 9.5H74.1709C74.1387 9.33887 74.0698 9.19824 73.9644 9.07812C73.8618 8.95508 73.7271 8.85986 73.5601 8.79248C73.3931 8.72217 73.1982 8.68701 72.9756 8.68701C72.624 8.68701 72.3428 8.77051 72.1318 8.9375C71.9238 9.10449 71.8198 9.32129 71.8198 9.58789C71.8198 9.78418 71.8916 9.94824 72.0352 10.0801C72.1787 10.209 72.3838 10.3057 72.6504 10.3701L73.6304 10.6118C73.9673 10.6938 74.2544 10.8052 74.4917 10.9458C74.729 11.0864 74.9092 11.2651 75.0322 11.4819C75.1582 11.6987 75.2212 11.9639 75.2212 12.2773C75.2212 12.6465 75.1289 12.9702 74.9443 13.2485C74.7598 13.5239 74.4946 13.7378 74.1489 13.8901C73.8032 14.0425 73.3887 14.1187 72.9053 14.1187C72.5566 14.1187 72.2476 14.0762 71.978 13.9912C71.7085 13.9062 71.4785 13.7876 71.2881 13.6353C71.0977 13.48 70.9497 13.2998 70.8442 13.0947C70.7417 12.8867 70.6816 12.6626 70.6641 12.4224ZM78.293 9.27588C78.6973 9.27588 79.0547 9.35938 79.3652 9.52637C79.6758 9.69336 79.9175 9.93359 80.0903 10.2471C80.2661 10.5605 80.354 10.9341 80.354 11.3677V11.9697C80.354 12.418 80.2661 12.8003 80.0903 13.1167C79.9175 13.4302 79.6758 13.6689 79.3652 13.833C79.0547 13.9971 78.6973 14.0791 78.293 14.0791C77.8828 14.0791 77.5225 13.9971 77.2119 13.833C76.9043 13.6689 76.6626 13.4302 76.4868 13.1167C76.311 12.8032 76.2231 12.4224 76.2231 11.9741V11.3721C76.2231 10.9473 76.311 10.5781 76.4868 10.2646C76.6626 9.95117 76.9058 9.70801 77.2163 9.53516C77.5298 9.3623 77.8887 9.27588 78.293 9.27588ZM78.2974 10.0625C78.063 10.0625 77.8652 10.1226 77.7041 10.2427C77.543 10.3599 77.4199 10.521 77.335 10.7261C77.25 10.9282 77.2075 11.1597 77.2075 11.4204V11.939C77.2075 12.1997 77.2471 12.4326 77.3262 12.6377C77.4082 12.8398 77.5298 12.9995 77.6909 13.1167C77.855 13.2339 78.0571 13.2925 78.2974 13.2925C78.5376 13.2925 78.7368 13.2339 78.895 13.1167C79.0532 12.9995 79.1719 12.8398 79.251 12.6377C79.333 12.4326 79.374 12.1997 79.374 11.939V11.4204C79.374 11.1597 79.3315 10.9282 79.2466 10.7261C79.1646 10.521 79.043 10.3599 78.8818 10.2427C78.7236 10.1226 78.5288 10.0625 78.2974 10.0625ZM83.4609 9.27588C83.8652 9.27588 84.2227 9.35938 84.5332 9.52637C84.8438 9.69336 85.0854 9.93359 85.2583 10.2471C85.4341 10.5605 85.522 10.9341 85.522 11.3677V11.9697C85.522 12.418 85.4341 12.8003 85.2583 13.1167C85.0854 13.4302 84.8438 13.6689 84.5332 13.833C84.2227 13.9971 83.8652 14.0791 83.4609 14.0791C83.0508 14.0791 82.6904 13.9971 82.3799 13.833C82.0723 13.6689 81.8306 13.4302 81.6548 13.1167C81.479 12.8032 81.3911 12.4224 81.3911 11.9741V11.3721C81.3911 10.9473 81.479 10.5781 81.6548 10.2646C81.8306 9.95117 82.0737 9.70801 82.3843 9.53516C82.6978 9.3623 83.0566 9.27588 83.4609 9.27588ZM83.4653 10.0625C83.231 10.0625 83.0332 10.1226 82.8721 10.2427C82.7109 10.3599 82.5879 10.521 82.5029 10.7261C82.418 10.9282 82.3755 11.1597 82.3755 11.4204V11.939C82.3755 12.1997 82.415 12.4326 82.4941 12.6377C82.5762 12.8398 82.6978 12.9995 82.8589 13.1167C83.0229 13.2339 83.2251 13.2925 83.4653 13.2925C83.7056 13.2925 83.9048 13.2339 84.063 13.1167C84.2212 12.9995 84.3398 12.8398 84.4189 12.6377C84.501 12.4326 84.542 12.1997 84.542 11.939V11.4204C84.542 11.1597 84.4995 10.9282 84.4146 10.7261C84.3325 10.521 84.2109 10.3599 84.0498 10.2427C83.8916 10.1226 83.6968 10.0625 83.4653 10.0625ZM86.7788 14V9.35498H87.7368V10.1899H87.7852C87.8262 10.0669 87.895 9.93506 87.9917 9.79443C88.0913 9.65381 88.2363 9.53369 88.4268 9.43408C88.6172 9.33447 88.8691 9.28467 89.1826 9.28467C89.6484 9.28467 90.0249 9.41504 90.312 9.67578C90.6021 9.93652 90.7471 10.332 90.7471 10.8623V14H89.7715V11.1479C89.7715 10.9106 89.7319 10.7173 89.6528 10.5679C89.5767 10.4155 89.4697 10.3027 89.332 10.2295C89.1943 10.1533 89.0332 10.1152 88.8486 10.1152C88.6113 10.1152 88.4106 10.1724 88.2466 10.2866C88.0854 10.3979 87.9624 10.5518 87.8774 10.748C87.7954 10.9443 87.7544 11.1685 87.7544 11.4204V14H86.7788Z" fill="black"/>
</svg>
