<svg width="120" height="40" viewBox="0 0 120 40" fill="none" xmlns="http://www.w3.org/2000/svg">
<rect x="0.5" y="0.5" width="119" height="39" rx="5.5" fill="white"/>
<rect x="0.5" y="0.5" width="119" height="39" rx="5.5" stroke="black"/>
<path d="M17.8048 19.4617L8.0896 30.0059C8.09051 30.0078 8.09051 30.0106 8.09142 30.0125C8.38981 31.1574 9.41179 32 10.6254 32C11.1108 32 11.5662 31.8656 11.9567 31.6305L11.9877 31.6118L22.9229 25.1593L17.8048 19.4617Z" fill="#EA4335"/>
<path d="M27.6331 17.6662L27.624 17.6597L22.9028 14.8612L17.5839 19.7013L22.9219 25.1582L27.6176 22.3878C28.4406 21.9324 29 21.045 29 20.0223C29 19.0052 28.4489 18.1225 27.6331 17.6662Z" fill="#FBBC04"/>
<path d="M8.08942 9.99332C8.03102 10.2135 8 10.4449 8 10.6838V29.3164C8 29.5552 8.03102 29.7866 8.09034 30.0059L18.1386 19.7313L8.08942 9.99332Z" fill="#4285F4"/>
<path d="M17.8766 19.9999L22.9044 14.8594L11.9819 8.38351C11.585 8.13997 11.1214 8 10.626 8C9.41237 8 8.38856 8.84447 8.09018 9.99034C8.09018 9.99128 8.08926 9.99221 8.08926 9.99314L17.8766 19.9999Z" fill="#34A853"/>
<path d="M93.5181 30.4097H95.1469V19.3981H93.5181V30.4097ZM108.189 23.3646L106.322 28.1388H106.266L104.328 23.3646H102.573L105.479 30.0371L103.823 33.749H105.521L110 23.3646H108.189ZM98.9519 29.1588C98.4176 29.1588 97.6739 28.8902 97.6739 28.2234C97.6739 27.3742 98.6001 27.0483 99.4005 27.0483C100.116 27.0483 100.454 27.2042 100.889 27.4165C100.762 28.4365 99.892 29.1588 98.9519 29.1588ZM99.1483 23.1241C97.969 23.1241 96.7469 23.6482 96.2424 24.8101L97.6879 25.4188C97.9969 24.8101 98.5721 24.611 99.1762 24.611C100.019 24.611 100.875 25.121 100.889 26.0283V26.1411C100.594 25.971 99.9627 25.7165 99.1902 25.7165C97.632 25.7165 96.0451 26.5806 96.0451 28.1952C96.0451 29.6689 97.323 30.6184 98.7546 30.6184C99.8501 30.6184 100.454 30.1225 100.833 29.5411H100.889V30.3912H102.461V26.1692C102.461 24.2146 101.015 23.1241 99.1483 23.1241M89.0821 24.7053H86.7655V20.9308H89.0821C90.2998 20.9308 90.9911 21.9482 90.9911 22.8176C90.9911 23.6711 90.2998 24.7053 89.0821 24.7053ZM89.0402 19.3981H85.1375V30.4097H86.7655V26.2379H89.0402C90.8453 26.2379 92.6199 24.9184 92.6199 22.8176C92.6199 20.7168 90.8453 19.3981 89.0402 19.3981M67.7583 29.1606C66.6332 29.1606 65.6913 28.2102 65.6913 26.9047C65.6913 25.5852 66.6332 24.6198 67.7583 24.6198C68.8695 24.6198 69.7406 25.5852 69.7406 26.9047C69.7406 28.2102 68.8695 29.1606 67.7583 29.1606ZM69.6289 23.9812H69.5722C69.2064 23.5417 68.5038 23.1444 67.6178 23.1444C65.7611 23.1444 64.0599 24.7898 64.0599 26.9047C64.0599 29.0047 65.7611 30.6369 67.6178 30.6369C68.5038 30.6369 69.2064 30.2396 69.5722 29.7851H69.6289V30.3251C69.6289 31.7582 68.8695 32.5246 67.6457 32.5246C66.6471 32.5246 66.0282 31.8005 65.7751 31.1901L64.3549 31.7864C64.7626 32.78 65.8458 34 67.6457 34C69.5582 34 71.1757 32.8646 71.1757 30.0978V23.3708H69.6289V23.9812ZM72.3008 30.4097H73.9322V19.3973H72.3008V30.4097ZM76.3362 26.777C76.2943 25.3298 77.4474 24.5916 78.2766 24.5916C78.9243 24.5916 79.4725 24.9176 79.6549 25.3862L76.3362 26.777ZM81.3989 25.528C81.0899 24.6912 80.1472 23.1444 78.2208 23.1444C76.3083 23.1444 74.7196 24.6621 74.7196 26.8907C74.7196 28.9906 76.2943 30.6369 78.4032 30.6369C80.1053 30.6369 81.0899 29.5869 81.4976 28.9765L80.2319 28.1247C79.8103 28.7493 79.2333 29.1606 78.4032 29.1606C77.5739 29.1606 76.983 28.7774 76.6033 28.0261L81.5674 25.9534L81.3989 25.528ZM41.8501 24.2939V25.883H45.6184C45.5058 26.777 45.2107 27.4297 44.7612 27.8834C44.2121 28.4374 43.3541 29.0479 41.8501 29.0479C39.5291 29.0479 37.7152 27.1602 37.7152 24.8189C37.7152 22.4767 39.5291 20.5899 41.8501 20.5899C43.1018 20.5899 44.0157 21.0867 44.6905 21.7254L45.8017 20.604C44.8589 19.6959 43.6081 19 41.8501 19C38.6719 19 36 21.6117 36 24.8189C36 28.0261 38.6719 30.6369 41.8501 30.6369C43.5653 30.6369 44.8589 30.0688 45.8715 29.0047C46.9129 27.9547 47.2358 26.4793 47.2358 25.2866C47.2358 24.9176 47.2079 24.5775 47.1512 24.2939H41.8501ZM51.5208 29.1606C50.3957 29.1606 49.425 28.2243 49.425 26.8907C49.425 25.5421 50.3957 24.6198 51.5208 24.6198C52.6451 24.6198 53.6158 25.5421 53.6158 26.8907C53.6158 28.2243 52.6451 29.1606 51.5208 29.1606ZM51.5208 23.1444C49.4669 23.1444 47.7936 24.7194 47.7936 26.8907C47.7936 29.0479 49.4669 30.6369 51.5208 30.6369C53.5739 30.6369 55.2472 29.0479 55.2472 26.8907C55.2472 24.7194 53.5739 23.1444 51.5208 23.1444ZM59.65 29.1606C58.5249 29.1606 57.5542 28.2243 57.5542 26.8907C57.5542 25.5421 58.5249 24.6198 59.65 24.6198C60.7752 24.6198 61.745 25.5421 61.745 26.8907C61.745 28.2243 60.7752 29.1606 59.65 29.1606ZM59.65 23.1444C57.597 23.1444 55.9237 24.7194 55.9237 26.8907C55.9237 29.0479 57.597 30.6369 59.65 30.6369C61.7031 30.6369 63.3764 29.0479 63.3764 26.8907C63.3764 24.7194 61.7031 23.1444 59.65 23.1444Z" fill="black"/>
<path d="M37.7334 10.2451V11.1289C37.7334 11.5651 37.7952 11.9362 37.9189 12.2422C38.0459 12.5482 38.2298 12.7809 38.4707 12.9404C38.7116 13.0999 39.0013 13.1797 39.3398 13.1797C39.6133 13.1797 39.8525 13.1292 40.0576 13.0283C40.266 12.9274 40.432 12.7891 40.5557 12.6133C40.6794 12.4342 40.7542 12.2292 40.7803 11.998H41.8594C41.8594 12.0111 41.8594 12.0241 41.8594 12.0371C41.8594 12.0501 41.8594 12.0632 41.8594 12.0762C41.8301 12.4766 41.7031 12.8314 41.4785 13.1406C41.2572 13.4499 40.9609 13.6924 40.5898 13.8682C40.2188 14.0439 39.8005 14.1318 39.335 14.1318C38.7555 14.1318 38.2624 14.013 37.8555 13.7754C37.4486 13.5378 37.1393 13.196 36.9277 12.75C36.7161 12.3008 36.6104 11.7604 36.6104 11.1289V10.2354C36.6104 9.6071 36.7178 9.06673 36.9326 8.61426C37.1475 8.15853 37.4583 7.81022 37.8652 7.56934C38.2721 7.3252 38.762 7.20312 39.335 7.20312C39.6865 7.20312 40.0104 7.25521 40.3066 7.35938C40.6061 7.46029 40.8682 7.60677 41.0928 7.79883C41.3174 7.99089 41.4964 8.21875 41.6299 8.48242C41.7633 8.74284 41.8398 9.03092 41.8594 9.34668C41.8594 9.3597 41.8594 9.37272 41.8594 9.38574C41.8594 9.39551 41.8594 9.4069 41.8594 9.41992H40.7803C40.7542 9.17578 40.6777 8.95931 40.5508 8.77051C40.4271 8.57845 40.2611 8.42871 40.0527 8.32129C39.8444 8.21387 39.6068 8.16016 39.3398 8.16016C39.0046 8.16016 38.7165 8.24316 38.4756 8.40918C38.238 8.57194 38.054 8.80794 37.9238 9.11719C37.7969 9.42643 37.7334 9.80241 37.7334 10.2451ZM47.4648 10.2061C47.4648 9.74707 47.3932 9.36621 47.25 9.06348C47.1068 8.75749 46.9115 8.52962 46.6641 8.37988C46.4167 8.22689 46.1351 8.15039 45.8193 8.15039C45.5003 8.15039 45.2171 8.22689 44.9697 8.37988C44.7223 8.52962 44.527 8.75749 44.3838 9.06348C44.2406 9.36621 44.1689 9.74707 44.1689 10.2061V11.1289C44.1689 11.5879 44.2406 11.9704 44.3838 12.2764C44.527 12.5791 44.7223 12.807 44.9697 12.96C45.2171 13.113 45.5003 13.1895 45.8193 13.1895C46.1351 13.1895 46.4167 13.113 46.6641 12.96C46.9115 12.807 47.1068 12.5791 47.25 12.2764C47.3932 11.9704 47.4648 11.5879 47.4648 11.1289V10.2061ZM48.5879 11.124C48.5879 11.7523 48.4756 12.2926 48.251 12.7451C48.0264 13.1943 47.7074 13.5378 47.2939 13.7754C46.8805 14.013 46.389 14.1318 45.8193 14.1318C45.2497 14.1318 44.7565 14.013 44.3398 13.7754C43.9264 13.5378 43.6074 13.1943 43.3828 12.7451C43.1582 12.2926 43.0459 11.7523 43.0459 11.124V10.2158C43.0459 9.58431 43.1582 9.04395 43.3828 8.59473C43.6074 8.14551 43.9264 7.80208 44.3398 7.56445C44.7565 7.32357 45.2497 7.20312 45.8193 7.20312C46.389 7.20312 46.8805 7.32357 47.2939 7.56445C47.7074 7.80208 48.0264 8.14551 48.251 8.59473C48.4756 9.04395 48.5879 9.58431 48.5879 10.2158V11.124ZM51.0928 14H50.1016V7.33496H51.21L53.2461 12.0566H53.2852L55.3213 7.33496H56.4248V14H55.4238V9.36133H55.3652L53.6562 13.292H52.8604L51.1514 9.36133H51.0928V14ZM59.3154 14H58.207V7.33496H59.3154V14ZM62.1426 14H61.0781V7.33496H62.0547L65.165 12.1201H65.2139V7.33496H66.2783V14H65.3066L62.1865 9.2002H62.1426V14ZM73.0703 9.23926H71.9766C71.9375 9.0765 71.8757 8.92839 71.791 8.79492C71.7096 8.66146 71.6071 8.54753 71.4834 8.45312C71.3597 8.35547 71.2165 8.2806 71.0537 8.22852C70.8942 8.17643 70.7168 8.15039 70.5215 8.15039C70.0072 8.15039 69.6068 8.33268 69.3203 8.69727C69.0339 9.05859 68.8906 9.56478 68.8906 10.2158V11.085C68.8906 11.5146 68.9525 11.8874 69.0762 12.2031C69.2031 12.5156 69.3903 12.7581 69.6377 12.9307C69.8851 13.0999 70.1911 13.1846 70.5557 13.1846C70.8877 13.1846 71.1628 13.126 71.3809 13.0088C71.6022 12.8916 71.7682 12.7337 71.8789 12.5352C71.9896 12.3366 72.0449 12.112 72.0449 11.8613V11.334H70.5117V10.46H73.1094V11.8125C73.1094 12.1348 73.054 12.4375 72.9434 12.7207C72.8359 13.0007 72.6748 13.2464 72.46 13.458C72.2451 13.6696 71.9782 13.8356 71.6592 13.9561C71.3434 14.0732 70.974 14.1318 70.5508 14.1318C70.0983 14.1318 69.6979 14.0618 69.3496 13.9219C69.0046 13.7786 68.7148 13.5752 68.4805 13.3115C68.2461 13.0446 68.0687 12.724 67.9482 12.3496C67.8311 11.972 67.7725 11.5521 67.7725 11.0898V10.2109C67.7725 9.60221 67.8815 9.07324 68.0996 8.62402C68.321 8.17155 68.6383 7.82161 69.0518 7.57422C69.4652 7.32682 69.9616 7.20312 70.541 7.20312C70.9056 7.20312 71.236 7.25521 71.5322 7.35938C71.8285 7.46029 72.084 7.60352 72.2988 7.78906C72.5169 7.97135 72.6911 8.1862 72.8213 8.43359C72.9515 8.68099 73.0345 8.94954 73.0703 9.23926ZM76.4004 12.2471H77.4893C77.5153 12.3903 77.5674 12.5221 77.6455 12.6426C77.7269 12.7598 77.8311 12.8623 77.958 12.9502C78.0882 13.0348 78.238 13.1016 78.4072 13.1504C78.5798 13.196 78.7686 13.2188 78.9736 13.2188C79.2666 13.2188 79.5156 13.1764 79.7207 13.0918C79.9258 13.0039 80.082 12.8835 80.1895 12.7305C80.3001 12.5742 80.3555 12.3919 80.3555 12.1836C80.3555 11.9329 80.2692 11.7344 80.0967 11.5879C79.9242 11.4382 79.6572 11.3193 79.2959 11.2314L78.2021 10.958C77.8636 10.8766 77.5723 10.7562 77.3281 10.5967C77.084 10.4372 76.8968 10.237 76.7666 9.99609C76.6364 9.75521 76.5713 9.47689 76.5713 9.16113C76.5713 8.77051 76.6738 8.42708 76.8789 8.13086C77.0872 7.83464 77.3721 7.60352 77.7334 7.4375C78.0947 7.27148 78.5098 7.18848 78.9785 7.18848C79.4538 7.18848 79.8639 7.26823 80.209 7.42773C80.5573 7.58724 80.8307 7.80371 81.0293 8.07715C81.2311 8.35059 81.3451 8.6582 81.3711 9H80.2969C80.2611 8.82096 80.1846 8.66471 80.0674 8.53125C79.9535 8.39453 79.8037 8.28874 79.6182 8.21387C79.4326 8.13574 79.2161 8.09668 78.9688 8.09668C78.5781 8.09668 78.2656 8.18945 78.0312 8.375C77.8001 8.56055 77.6846 8.80143 77.6846 9.09766C77.6846 9.31576 77.7643 9.49805 77.9238 9.64453C78.0833 9.78776 78.3112 9.89518 78.6074 9.9668L79.6963 10.2354C80.0706 10.3265 80.3896 10.4502 80.6533 10.6064C80.917 10.7627 81.1172 10.9613 81.2539 11.2021C81.3939 11.443 81.4639 11.7376 81.4639 12.0859C81.4639 12.4961 81.3613 12.8558 81.1562 13.165C80.9512 13.471 80.6566 13.7087 80.2725 13.8779C79.8883 14.0472 79.4277 14.1318 78.8906 14.1318C78.5033 14.1318 78.1598 14.0846 77.8604 13.9902C77.5609 13.8958 77.3053 13.764 77.0938 13.5947C76.8822 13.4222 76.7178 13.222 76.6006 12.9941C76.4867 12.763 76.4199 12.514 76.4004 12.2471ZM87.0352 10.2061C87.0352 9.74707 86.9635 9.36621 86.8203 9.06348C86.6771 8.75749 86.4818 8.52962 86.2344 8.37988C85.987 8.22689 85.7054 8.15039 85.3896 8.15039C85.0706 8.15039 84.7874 8.22689 84.54 8.37988C84.2926 8.52962 84.0973 8.75749 83.9541 9.06348C83.8109 9.36621 83.7393 9.74707 83.7393 10.2061V11.1289C83.7393 11.5879 83.8109 11.9704 83.9541 12.2764C84.0973 12.5791 84.2926 12.807 84.54 12.96C84.7874 13.113 85.0706 13.1895 85.3896 13.1895C85.7054 13.1895 85.987 13.113 86.2344 12.96C86.4818 12.807 86.6771 12.5791 86.8203 12.2764C86.9635 11.9704 87.0352 11.5879 87.0352 11.1289V10.2061ZM88.1582 11.124C88.1582 11.7523 88.0459 12.2926 87.8213 12.7451C87.5967 13.1943 87.2777 13.5378 86.8643 13.7754C86.4508 14.013 85.9593 14.1318 85.3896 14.1318C84.82 14.1318 84.3268 14.013 83.9102 13.7754C83.4967 13.5378 83.1777 13.1943 82.9531 12.7451C82.7285 12.2926 82.6162 11.7523 82.6162 11.124V10.2158C82.6162 9.58431 82.7285 9.04395 82.9531 8.59473C83.1777 8.14551 83.4967 7.80208 83.9102 7.56445C84.3268 7.32357 84.82 7.20312 85.3896 7.20312C85.9593 7.20312 86.4508 7.32357 86.8643 7.56445C87.2777 7.80208 87.5967 8.14551 87.8213 8.59473C88.0459 9.04395 88.1582 9.58431 88.1582 10.2158V11.124ZM93.8418 10.2061C93.8418 9.74707 93.7702 9.36621 93.627 9.06348C93.4837 8.75749 93.2884 8.52962 93.041 8.37988C92.7936 8.22689 92.512 8.15039 92.1963 8.15039C91.8773 8.15039 91.5941 8.22689 91.3467 8.37988C91.0993 8.52962 90.904 8.75749 90.7607 9.06348C90.6175 9.36621 90.5459 9.74707 90.5459 10.2061V11.1289C90.5459 11.5879 90.6175 11.9704 90.7607 12.2764C90.904 12.5791 91.0993 12.807 91.3467 12.96C91.5941 13.113 91.8773 13.1895 92.1963 13.1895C92.512 13.1895 92.7936 13.113 93.041 12.96C93.2884 12.807 93.4837 12.5791 93.627 12.2764C93.7702 11.9704 93.8418 11.5879 93.8418 11.1289V10.2061ZM94.9648 11.124C94.9648 11.7523 94.8525 12.2926 94.6279 12.7451C94.4033 13.1943 94.0843 13.5378 93.6709 13.7754C93.2575 14.013 92.766 14.1318 92.1963 14.1318C91.6266 14.1318 91.1335 14.013 90.7168 13.7754C90.3034 13.5378 89.9844 13.1943 89.7598 12.7451C89.5352 12.2926 89.4229 11.7523 89.4229 11.124V10.2158C89.4229 9.58431 89.5352 9.04395 89.7598 8.59473C89.9844 8.14551 90.3034 7.80208 90.7168 7.56445C91.1335 7.32357 91.6266 7.20312 92.1963 7.20312C92.766 7.20312 93.2575 7.32357 93.6709 7.56445C94.0843 7.80208 94.4033 8.14551 94.6279 8.59473C94.8525 9.04395 94.9648 9.58431 94.9648 10.2158V11.124ZM97.5234 14H96.459V7.33496H97.4355L100.546 12.1201H100.595V7.33496H101.659V14H100.688L97.5674 9.2002H97.5234V14Z" fill="black"/>
</svg>
